<svg width="600" height="776" viewBox="0 0 600 776" fill="none" xmlns="http://www.w3.org/2000/svg">
<path fill-rule="evenodd" clip-rule="evenodd" d="M432.507 157.673C404.982 103.875 347.681 66.75 281.25 66.75C192.206 66.75 119.438 133.332 113.119 217.655C47.6629 235.648 0 290.803 0 356.083C0 433.118 66.375 496.32 150 500.75H431.25C524.363 500.75 600 423.842 600 328.958C600 237.529 525.919 163.008 432.507 157.673Z" fill="url(#paint0_linear_108_25)"/>
<path d="M108.241 555.153C107.743 554.932 106.526 554.572 104.589 554.074C102.707 553.521 100.134 552.995 96.8691 552.497C93.6595 551.999 90.1732 551.75 86.4102 551.75C74.9551 551.75 66.1286 555.928 59.9307 564.284C53.7881 572.585 50.7168 584.566 50.7168 600.227C50.7168 614.947 54.0371 625.987 60.6777 633.347C67.3184 640.707 76.2002 644.387 87.3232 644.387C92.6357 644.387 97.8099 643.363 102.846 641.315C107.882 639.268 112.198 637.054 115.795 634.675C119.447 632.295 121.273 630.995 121.273 630.773L128.08 641.813C128.08 642.146 126.033 643.889 121.938 647.043C117.898 650.142 112.724 653.02 106.415 655.676C100.106 658.332 93.1615 659.66 85.5801 659.66C68.3698 659.66 55.0055 654.624 45.4873 644.553C35.9691 634.481 31.21 619.982 31.21 601.057C31.21 588.163 33.5342 576.929 38.1826 567.355C42.8311 557.727 49.4163 550.311 57.9385 545.109C66.516 539.908 76.5876 537.307 88.1533 537.307C93.6872 537.307 99.2764 537.943 104.921 539.216C110.621 540.433 115.629 541.817 119.945 543.366C124.262 544.86 126.42 545.663 126.42 545.773L125.59 574.66H112.807L108.241 555.153ZM185.355 658H138.29V648.62L152.733 644.387V540.71L138.29 537.307V527.927L170.082 527.097V644.387L185.355 648.62V658ZM204.032 539.88C204.032 536.117 205.111 533.184 207.27 531.081C209.428 528.978 212.029 527.927 215.072 527.927C222.432 527.927 226.112 531.911 226.112 539.88C226.112 543.532 224.978 546.438 222.709 548.596C220.44 550.699 217.895 551.75 215.072 551.75C211.697 551.75 209.013 550.699 207.021 548.596C205.028 546.493 204.032 543.588 204.032 539.88ZM237.152 658H192.992V648.62L207.436 644.387V581.467L192.992 578.063V568.767L224.452 567.937V644.387L237.152 648.62V658ZM279.486 579.973C282.696 576.929 287.123 573.885 292.768 570.842C298.412 567.743 304.25 566.193 310.282 566.193C321.737 566.193 329.623 571.063 333.939 580.803C336.762 577.98 341.05 574.854 346.806 571.423C352.616 567.937 358.869 566.193 365.565 566.193C374.641 566.193 381.282 568.877 385.487 574.245C389.748 579.558 391.879 587.084 391.879 596.823V644.387L404.662 648.62V658H363.822V648.62L374.862 644.387V598.483C374.862 592.23 373.783 587.692 371.625 584.87C369.467 582.048 365.731 580.637 360.419 580.637C356.103 580.637 352.174 581.66 348.632 583.708C345.146 585.756 342.268 587.969 339.999 590.349C337.73 592.728 336.596 594.029 336.596 594.25V644.387L347.719 648.62V658H308.539V648.62L319.662 644.387V598.483C319.662 592.23 318.583 587.692 316.425 584.87C314.267 582.048 310.531 580.637 305.219 580.637C300.902 580.637 296.973 581.66 293.432 583.708C289.945 585.756 287.068 587.969 284.799 590.349C282.53 592.728 281.396 594.029 281.396 594.25V644.387L292.436 648.62V658H249.936V648.62L264.379 644.387V581.467L249.936 578.063V568.767L277.992 567.937L279.486 579.973ZM432.719 558.557C432.719 548.264 435.43 540.184 440.854 534.318C446.332 528.397 454.107 525.437 464.179 525.437C468.938 525.437 473.227 525.879 477.045 526.765C480.863 527.65 483.935 528.618 486.259 529.67C488.583 530.666 489.745 531.219 489.745 531.33V552.58H477.792L475.219 538.967C474.776 538.856 473.586 538.69 471.649 538.469C469.768 538.247 467.582 538.137 465.092 538.137C459.447 538.137 455.463 539.603 453.139 542.536C450.87 545.414 449.735 549.619 449.735 555.153V568.767H472.23L471.649 581.467H449.735V644.387L466.752 648.62V658H418.275V648.62L432.719 644.387V581.467H417.445V570.427L432.719 568.767V558.557ZM530.502 639.323L549.179 580.637L537.309 578.063V568.767L577.567 567.937V578.063L566.527 579.807L542.455 647.126L540.878 651.193C537.115 661.265 533.601 669.51 530.336 675.93C527.071 682.349 522.644 687.772 517.055 692.199C511.521 696.626 504.687 698.84 496.552 698.84C494.726 698.84 492.623 698.701 490.243 698.425C487.864 698.203 486.314 698.037 485.595 697.927L487.172 686.057H495.639C501.173 686.057 506.015 683.732 510.165 679.084C514.315 674.436 518.493 667.518 522.699 658.332L492.235 580.637L482.025 578.063V568.767L522.035 567.937V578.063L510.082 579.807L530.502 639.323Z" fill="white"/>
<defs>
<linearGradient id="paint0_linear_108_25" x1="300" y1="66.75" x2="300" y2="500.75" gradientUnits="userSpaceOnUse">
<stop stop-color="#69DFB0"/>
<stop offset="0.956731" stop-color="#39795F"/>
</linearGradient>
</defs>
</svg>
